<mxfile host="app.diagrams.net" modified="2022-01-25T18:54:28.994Z" agent="5.0 (Windows NT 10.0; Win64; x64) AppleWebKit/537.36 (KHTML, like Gecko) Chrome/97.0.4692.99 Safari/537.36" etag="L9qL4_x64nSadbnkhowf" version="16.4.6" type="github">
  <diagram id="Cx08BOZQVF9MGUPJrAUp" name="Page-1">
    <mxGraphModel dx="1422" dy="832" grid="1" gridSize="10" guides="1" tooltips="1" connect="1" arrows="1" fold="1" page="1" pageScale="1" pageWidth="850" pageHeight="1100" math="0" shadow="0">
      <root>
        <mxCell id="0" />
        <mxCell id="1" parent="0" />
        <mxCell id="Mm24luuSRJNwgkn8NnQr-1" value="Opening page" style="verticalLabelPosition=bottom;verticalAlign=top;html=1;shape=mxgraph.basic.rect;fillColor2=none;strokeWidth=1;size=20;indent=5;shadow=1;strokeColor=#7EA6E0;fillColor=#A9C4EB;" vertex="1" parent="1">
          <mxGeometry x="50" y="50" width="120" height="60" as="geometry" />
        </mxCell>
        <mxCell id="Mm24luuSRJNwgkn8NnQr-3" value="" style="html=1;shadow=0;dashed=0;align=center;verticalAlign=middle;shape=mxgraph.arrows2.arrow;dy=0.8;dx=39;notch=0;rotation=115;" vertex="1" parent="1">
          <mxGeometry x="40" y="160" width="70" height="20" as="geometry" />
        </mxCell>
        <mxCell id="Mm24luuSRJNwgkn8NnQr-6" value="" style="html=1;shadow=0;dashed=0;align=center;verticalAlign=middle;shape=mxgraph.arrows2.arrow;dy=0.8;dx=39;notch=0;rotation=65;" vertex="1" parent="1">
          <mxGeometry x="100" y="160" width="70" height="20" as="geometry" />
        </mxCell>
        <mxCell id="Mm24luuSRJNwgkn8NnQr-35" style="edgeStyle=orthogonalEdgeStyle;rounded=0;orthogonalLoop=1;jettySize=auto;html=1;entryX=0.5;entryY=0;entryDx=0;entryDy=0;" edge="1" parent="1" source="Mm24luuSRJNwgkn8NnQr-10" target="Mm24luuSRJNwgkn8NnQr-24">
          <mxGeometry relative="1" as="geometry">
            <mxPoint x="440" y="190" as="targetPoint" />
            <Array as="points">
              <mxPoint x="45" y="320" />
              <mxPoint x="415" y="320" />
            </Array>
          </mxGeometry>
        </mxCell>
        <mxCell id="Mm24luuSRJNwgkn8NnQr-10" value="create acc page." style="verticalLabelPosition=bottom;verticalAlign=top;html=1;shape=mxgraph.basic.rect;fillColor2=none;strokeWidth=1;size=20;indent=5;shadow=1;strokeColor=#7EA6E0;fillColor=#A9C4EB;" vertex="1" parent="1">
          <mxGeometry y="220" width="90" height="60" as="geometry" />
        </mxCell>
        <mxCell id="Mm24luuSRJNwgkn8NnQr-22" style="edgeStyle=orthogonalEdgeStyle;rounded=0;orthogonalLoop=1;jettySize=auto;html=1;entryX=0.5;entryY=0;entryDx=0;entryDy=0;" edge="1" parent="1" source="Mm24luuSRJNwgkn8NnQr-12" target="Mm24luuSRJNwgkn8NnQr-24">
          <mxGeometry relative="1" as="geometry">
            <mxPoint x="425" y="140" as="targetPoint" />
          </mxGeometry>
        </mxCell>
        <mxCell id="Mm24luuSRJNwgkn8NnQr-12" value="Sign-in page" style="verticalLabelPosition=bottom;verticalAlign=top;html=1;shape=mxgraph.basic.rect;fillColor2=none;strokeWidth=1;size=20;indent=5;shadow=1;strokeColor=#7EA6E0;fillColor=#A9C4EB;" vertex="1" parent="1">
          <mxGeometry x="120" y="220" width="90" height="60" as="geometry" />
        </mxCell>
        <mxCell id="Mm24luuSRJNwgkn8NnQr-14" value="" style="shape=umlActor;verticalLabelPosition=bottom;verticalAlign=top;html=1;outlineConnect=0;shadow=1;strokeColor=#FF9933;fillColor=#FFCE9F;" vertex="1" parent="1">
          <mxGeometry x="35" y="230" width="20" height="40" as="geometry" />
        </mxCell>
        <mxCell id="Mm24luuSRJNwgkn8NnQr-27" value="" style="edgeStyle=orthogonalEdgeStyle;rounded=0;orthogonalLoop=1;jettySize=auto;html=1;" edge="1" parent="1" source="Mm24luuSRJNwgkn8NnQr-24" target="Mm24luuSRJNwgkn8NnQr-26">
          <mxGeometry relative="1" as="geometry" />
        </mxCell>
        <mxCell id="Mm24luuSRJNwgkn8NnQr-29" value="" style="edgeStyle=orthogonalEdgeStyle;rounded=0;orthogonalLoop=1;jettySize=auto;html=1;" edge="1" parent="1" source="Mm24luuSRJNwgkn8NnQr-24" target="Mm24luuSRJNwgkn8NnQr-28">
          <mxGeometry relative="1" as="geometry" />
        </mxCell>
        <mxCell id="Mm24luuSRJNwgkn8NnQr-24" value="homepage" style="whiteSpace=wrap;html=1;verticalAlign=top;fillColor=#FFCE9F;strokeColor=#FF9933;strokeWidth=1;shadow=1;" vertex="1" parent="1">
          <mxGeometry x="355" y="350" width="120" height="60" as="geometry" />
        </mxCell>
        <mxCell id="Mm24luuSRJNwgkn8NnQr-33" value="" style="edgeStyle=orthogonalEdgeStyle;rounded=0;orthogonalLoop=1;jettySize=auto;html=1;" edge="1" parent="1" source="Mm24luuSRJNwgkn8NnQr-26" target="Mm24luuSRJNwgkn8NnQr-32">
          <mxGeometry relative="1" as="geometry" />
        </mxCell>
        <mxCell id="Mm24luuSRJNwgkn8NnQr-26" value="workout" style="whiteSpace=wrap;html=1;verticalAlign=top;fillColor=#FFCE9F;strokeColor=#FF9933;strokeWidth=1;shadow=1;" vertex="1" parent="1">
          <mxGeometry x="200" y="350" width="120" height="60" as="geometry" />
        </mxCell>
        <mxCell id="Mm24luuSRJNwgkn8NnQr-31" value="" style="edgeStyle=orthogonalEdgeStyle;rounded=0;orthogonalLoop=1;jettySize=auto;html=1;" edge="1" parent="1" source="Mm24luuSRJNwgkn8NnQr-28" target="Mm24luuSRJNwgkn8NnQr-30">
          <mxGeometry relative="1" as="geometry" />
        </mxCell>
        <mxCell id="Mm24luuSRJNwgkn8NnQr-28" value="calorie counter" style="whiteSpace=wrap;html=1;verticalAlign=top;fillColor=#FFCE9F;strokeColor=#FF9933;strokeWidth=1;shadow=1;" vertex="1" parent="1">
          <mxGeometry x="510" y="350" width="120" height="60" as="geometry" />
        </mxCell>
        <mxCell id="Mm24luuSRJNwgkn8NnQr-30" value="body metric stats" style="whiteSpace=wrap;html=1;verticalAlign=top;fillColor=#FFCE9F;strokeColor=#FF9933;strokeWidth=1;shadow=1;" vertex="1" parent="1">
          <mxGeometry x="660" y="350" width="120" height="60" as="geometry" />
        </mxCell>
        <mxCell id="Mm24luuSRJNwgkn8NnQr-32" value="workout stats" style="whiteSpace=wrap;html=1;verticalAlign=top;fillColor=#FFCE9F;strokeColor=#FF9933;strokeWidth=1;shadow=1;" vertex="1" parent="1">
          <mxGeometry x="50" y="350" width="120" height="60" as="geometry" />
        </mxCell>
        <mxCell id="Mm24luuSRJNwgkn8NnQr-37" value="" style="shape=partialRectangle;whiteSpace=wrap;html=1;bottom=0;right=0;fillColor=none;shadow=1;strokeColor=#FF9933;" vertex="1" parent="1">
          <mxGeometry x="350" y="490" width="130" height="260" as="geometry" />
        </mxCell>
        <mxCell id="Mm24luuSRJNwgkn8NnQr-42" value="" style="shape=partialRectangle;whiteSpace=wrap;html=1;bottom=0;right=0;fillColor=none;shadow=1;strokeColor=#FF9933;" vertex="1" parent="1">
          <mxGeometry x="505" y="490" width="130" height="260" as="geometry" />
        </mxCell>
        <mxCell id="Mm24luuSRJNwgkn8NnQr-43" value="" style="shape=partialRectangle;whiteSpace=wrap;html=1;bottom=0;right=0;fillColor=none;shadow=1;strokeColor=#FF9933;" vertex="1" parent="1">
          <mxGeometry x="655" y="490" width="130" height="260" as="geometry" />
        </mxCell>
        <mxCell id="Mm24luuSRJNwgkn8NnQr-44" value="" style="shape=partialRectangle;whiteSpace=wrap;html=1;bottom=0;right=0;fillColor=none;shadow=1;strokeColor=#FF9933;" vertex="1" parent="1">
          <mxGeometry x="195" y="490" width="130" height="260" as="geometry" />
        </mxCell>
        <mxCell id="Mm24luuSRJNwgkn8NnQr-45" value="" style="shape=partialRectangle;whiteSpace=wrap;html=1;bottom=0;right=0;fillColor=none;shadow=1;strokeColor=#FF9933;" vertex="1" parent="1">
          <mxGeometry x="45" y="490" width="130" height="260" as="geometry" />
        </mxCell>
        <mxCell id="Mm24luuSRJNwgkn8NnQr-46" value="Start" style="shape=hexagon;perimeter=hexagonPerimeter2;whiteSpace=wrap;html=1;fixedSize=1;shadow=1;strokeColor=#FF9933;fillColor=#FFCE9F;" vertex="1" parent="1">
          <mxGeometry x="380" y="690" width="70" height="30" as="geometry" />
        </mxCell>
        <mxCell id="Mm24luuSRJNwgkn8NnQr-47" value="Quote" style="shape=process;whiteSpace=wrap;html=1;backgroundOutline=1;shadow=1;strokeColor=#FF9933;fillColor=#FFCE9F;" vertex="1" parent="1">
          <mxGeometry x="360" y="520" width="115" height="50" as="geometry" />
        </mxCell>
        <mxCell id="Mm24luuSRJNwgkn8NnQr-48" value="&lt;font style=&quot;font-size: 10px&quot;&gt;Weeks w/o break&lt;/font&gt;" style="shape=trapezoid;perimeter=trapezoidPerimeter;whiteSpace=wrap;html=1;fixedSize=1;shadow=1;strokeColor=#FF9933;fillColor=#FFCE9F;" vertex="1" parent="1">
          <mxGeometry x="355" y="610" width="120" height="30" as="geometry" />
        </mxCell>
        <mxCell id="Mm24luuSRJNwgkn8NnQr-49" value="Today&#39;s work:" style="rounded=0;whiteSpace=wrap;html=1;shadow=1;fontSize=10;strokeColor=#FF9933;fillColor=#FFCE9F;" vertex="1" parent="1">
          <mxGeometry x="205" y="510" width="110" height="30" as="geometry" />
        </mxCell>
        <mxCell id="Mm24luuSRJNwgkn8NnQr-50" value="workout" style="rounded=0;whiteSpace=wrap;html=1;shadow=1;fontSize=10;strokeColor=#FF9933;fillColor=#FFCE9F;" vertex="1" parent="1">
          <mxGeometry x="205" y="550" width="110" height="20" as="geometry" />
        </mxCell>
        <mxCell id="Mm24luuSRJNwgkn8NnQr-51" value="&lt;span&gt;workout&lt;/span&gt;" style="rounded=0;whiteSpace=wrap;html=1;shadow=1;fontSize=10;strokeColor=#FF9933;fillColor=#FFCE9F;" vertex="1" parent="1">
          <mxGeometry x="205" y="570" width="110" height="20" as="geometry" />
        </mxCell>
        <mxCell id="Mm24luuSRJNwgkn8NnQr-52" value="&lt;span&gt;workout&lt;/span&gt;" style="rounded=0;whiteSpace=wrap;html=1;shadow=1;fontSize=10;strokeColor=#FF9933;fillColor=#FFCE9F;" vertex="1" parent="1">
          <mxGeometry x="205" y="590" width="110" height="20" as="geometry" />
        </mxCell>
        <mxCell id="Mm24luuSRJNwgkn8NnQr-53" value="&lt;span&gt;workout&lt;/span&gt;" style="rounded=0;whiteSpace=wrap;html=1;shadow=1;fontSize=10;strokeColor=#FF9933;fillColor=#FFCE9F;" vertex="1" parent="1">
          <mxGeometry x="205" y="610" width="110" height="20" as="geometry" />
        </mxCell>
        <mxCell id="Mm24luuSRJNwgkn8NnQr-54" value="&lt;span&gt;workout&lt;/span&gt;" style="rounded=0;whiteSpace=wrap;html=1;shadow=1;fontSize=10;strokeColor=#FF9933;fillColor=#FFCE9F;" vertex="1" parent="1">
          <mxGeometry x="205" y="630" width="110" height="20" as="geometry" />
        </mxCell>
        <mxCell id="Mm24luuSRJNwgkn8NnQr-55" value="&lt;span&gt;workout&lt;/span&gt;" style="rounded=0;whiteSpace=wrap;html=1;shadow=1;fontSize=10;strokeColor=#FF9933;fillColor=#FFCE9F;" vertex="1" parent="1">
          <mxGeometry x="205" y="650" width="110" height="20" as="geometry" />
        </mxCell>
        <mxCell id="Mm24luuSRJNwgkn8NnQr-56" value="&lt;span&gt;workout&lt;/span&gt;" style="rounded=0;whiteSpace=wrap;html=1;shadow=1;fontSize=10;strokeColor=#FF9933;fillColor=#FFCE9F;" vertex="1" parent="1">
          <mxGeometry x="205" y="670" width="110" height="20" as="geometry" />
        </mxCell>
        <mxCell id="Mm24luuSRJNwgkn8NnQr-57" value="est. time" style="rounded=0;whiteSpace=wrap;html=1;shadow=1;fontSize=10;strokeColor=#FF9933;fillColor=#FFCE9F;" vertex="1" parent="1">
          <mxGeometry x="205" y="720" width="110" height="20" as="geometry" />
        </mxCell>
        <mxCell id="Mm24luuSRJNwgkn8NnQr-62" style="edgeStyle=orthogonalEdgeStyle;rounded=0;orthogonalLoop=1;jettySize=auto;html=1;exitX=0.5;exitY=1;exitDx=0;exitDy=0;fontSize=10;" edge="1" parent="1" source="Mm24luuSRJNwgkn8NnQr-58" target="Mm24luuSRJNwgkn8NnQr-60">
          <mxGeometry relative="1" as="geometry" />
        </mxCell>
        <mxCell id="Mm24luuSRJNwgkn8NnQr-58" value="All-time weight lifted" style="shape=trapezoid;perimeter=trapezoidPerimeter;whiteSpace=wrap;html=1;fixedSize=1;shadow=1;fontSize=10;strokeColor=#FF9933;fillColor=#FFCE9F;" vertex="1" parent="1">
          <mxGeometry x="52.5" y="530" width="115" height="40" as="geometry" />
        </mxCell>
        <mxCell id="Mm24luuSRJNwgkn8NnQr-59" value="" style="verticalLabelPosition=bottom;verticalAlign=top;html=1;shape=mxgraph.basic.donut;dx=4.76;shadow=0;fontSize=10;strokeColor=#FF9933;fillColor=#FFCE9F;" vertex="1" parent="1">
          <mxGeometry x="100" y="510" width="20" height="20" as="geometry" />
        </mxCell>
        <mxCell id="Mm24luuSRJNwgkn8NnQr-60" value="fun stats" style="rhombus;whiteSpace=wrap;html=1;shadow=0;fontSize=10;strokeColor=#FF9933;fillColor=#FFCE9F;" vertex="1" parent="1">
          <mxGeometry x="82.5" y="580" width="55" height="30" as="geometry" />
        </mxCell>
        <mxCell id="Mm24luuSRJNwgkn8NnQr-68" value="calories eaten" style="verticalLabelPosition=bottom;verticalAlign=top;html=1;shape=mxgraph.basic.donut;dx=5;shadow=0;fontSize=10;strokeColor=#FF9933;fillColor=#FFCE9F;" vertex="1" parent="1">
          <mxGeometry x="527.5" y="515" width="85" height="90" as="geometry" />
        </mxCell>
        <mxCell id="Mm24luuSRJNwgkn8NnQr-72" value="" style="verticalLabelPosition=bottom;verticalAlign=top;html=1;shape=mxgraph.basic.pie;startAngle=0.2;endAngle=0.9;shadow=0;fontSize=10;strokeColor=#FF9933;fillColor=#FFCE9F;" vertex="1" parent="1">
          <mxGeometry x="535" y="522.5" width="70" height="75" as="geometry" />
        </mxCell>
        <mxCell id="Mm24luuSRJNwgkn8NnQr-73" value="" style="endArrow=none;html=1;rounded=0;fontSize=10;entryX=0.5;entryY=0.5;entryDx=0;entryDy=0;entryPerimeter=0;exitX=0.5;exitY=1.007;exitDx=0;exitDy=0;exitPerimeter=0;strokeColor=#FF9933;" edge="1" parent="1" source="Mm24luuSRJNwgkn8NnQr-72" target="Mm24luuSRJNwgkn8NnQr-72">
          <mxGeometry width="50" height="50" relative="1" as="geometry">
            <mxPoint x="450" y="570" as="sourcePoint" />
            <mxPoint x="500" y="520" as="targetPoint" />
          </mxGeometry>
        </mxCell>
        <mxCell id="Mm24luuSRJNwgkn8NnQr-74" value="" style="endArrow=none;html=1;rounded=0;fontSize=10;entryX=0.929;entryY=0.78;entryDx=0;entryDy=0;entryPerimeter=0;exitX=0.5;exitY=0.487;exitDx=0;exitDy=0;exitPerimeter=0;strokeColor=#FF9933;" edge="1" parent="1" source="Mm24luuSRJNwgkn8NnQr-72" target="Mm24luuSRJNwgkn8NnQr-72">
          <mxGeometry width="50" height="50" relative="1" as="geometry">
            <mxPoint x="450" y="570" as="sourcePoint" />
            <mxPoint x="500" y="520" as="targetPoint" />
          </mxGeometry>
        </mxCell>
        <mxCell id="Mm24luuSRJNwgkn8NnQr-75" value="" style="ellipse;whiteSpace=wrap;html=1;shadow=0;fontSize=10;strokeColor=#FF9933;fillColor=#FFCE9F;" vertex="1" parent="1">
          <mxGeometry x="520" y="670" width="100" height="60" as="geometry" />
        </mxCell>
        <mxCell id="Mm24luuSRJNwgkn8NnQr-77" value="" style="shape=partialRectangle;whiteSpace=wrap;html=1;bottom=0;right=0;fillColor=none;shadow=0;fontSize=10;strokeColor=#FF9933;" vertex="1" parent="1">
          <mxGeometry x="45" y="850" width="765" height="400" as="geometry" />
        </mxCell>
        <mxCell id="Mm24luuSRJNwgkn8NnQr-78" value="Start" style="shape=hexagon;perimeter=hexagonPerimeter2;whiteSpace=wrap;html=1;fixedSize=1;shadow=0;strokeColor=#000000;fillColor=#FFFFFF;" vertex="1" parent="1">
          <mxGeometry x="370" y="1180" width="110" height="50" as="geometry" />
        </mxCell>
        <mxCell id="Mm24luuSRJNwgkn8NnQr-79" value="Workout metrics" style="verticalLabelPosition=bottom;verticalAlign=top;html=1;shape=mxgraph.basic.rect;fillColor2=none;strokeWidth=1;size=20;indent=5;shadow=0;fontSize=10;fillColor=#FFFFFF;" vertex="1" parent="1">
          <mxGeometry x="70" y="900" width="250" height="330" as="geometry" />
        </mxCell>
        <mxCell id="Mm24luuSRJNwgkn8NnQr-80" value="meal plan" style="verticalLabelPosition=bottom;verticalAlign=top;html=1;shape=mxgraph.basic.rect;fillColor2=none;strokeWidth=1;size=20;indent=5;shadow=0;fontSize=10;fillColor=#FFFFFF;" vertex="1" parent="1">
          <mxGeometry x="530" y="890" width="250" height="340" as="geometry" />
        </mxCell>
        <mxCell id="Mm24luuSRJNwgkn8NnQr-81" value="link" style="verticalLabelPosition=bottom;verticalAlign=top;html=1;shape=mxgraph.basic.rect;fillColor2=none;strokeWidth=1;size=20;indent=5;shadow=0;fontSize=10;fillColor=#FFFFFF;" vertex="1" parent="1">
          <mxGeometry x="70" y="860" width="60" height="20" as="geometry" />
        </mxCell>
        <mxCell id="Mm24luuSRJNwgkn8NnQr-82" value="link" style="verticalLabelPosition=bottom;verticalAlign=top;html=1;shape=mxgraph.basic.rect;fillColor2=none;strokeWidth=1;size=20;indent=5;shadow=0;fontSize=10;fillColor=#FFFFFF;" vertex="1" parent="1">
          <mxGeometry x="130" y="860" width="60" height="20" as="geometry" />
        </mxCell>
        <mxCell id="Mm24luuSRJNwgkn8NnQr-83" value="link" style="verticalLabelPosition=bottom;verticalAlign=top;html=1;shape=mxgraph.basic.rect;fillColor2=none;strokeWidth=1;size=20;indent=5;shadow=0;fontSize=10;fillColor=#FFFFFF;" vertex="1" parent="1">
          <mxGeometry x="190" y="860" width="70" height="20" as="geometry" />
        </mxCell>
        <mxCell id="Mm24luuSRJNwgkn8NnQr-84" value="link" style="verticalLabelPosition=bottom;verticalAlign=top;html=1;shape=mxgraph.basic.rect;fillColor2=none;strokeWidth=1;size=20;indent=5;shadow=0;fontSize=10;fillColor=#FFFFFF;" vertex="1" parent="1">
          <mxGeometry x="260" y="860" width="60" height="20" as="geometry" />
        </mxCell>
      </root>
    </mxGraphModel>
  </diagram>
</mxfile>
